<svg  width="600" height="600" xmlns="http://www.w3.org/2000/svg" ><path  d="
 M 278 39 C 274 41, 270, 43, 268, 48
 C 256 64, 253, 82, 248, 99
 C 236 86, 230, 66, 212, 56
 C 203 54, 191, 53, 186, 59
 C 180 65, 176, 70, 177, 77
 C 175 95, 175, 110, 180, 124
 C 165 113, 158, 95, 143, 83
 C 131 80, 118, 79, 109, 82
 C 105 86, 100, 88, 100, 91
 C 100 99, 100, 105, 100, 111
 C 101 127, 105, 139, 113, 150
 C 101 141, 85, 143, 70, 142
 C 57 146, 45, 153, 42, 164
 C 40 178, 43, 189, 50, 197
 C 60 212, 73, 222, 85, 229
 C 80 234, 70, 232, 64, 238
 C 56 242, 50, 248, 47, 253
 C 45 265, 44, 278, 48, 287
 C 56 299, 68, 302, 79, 305
 C 67 314, 57, 322, 50, 332
 C 42 340, 44, 349, 44, 357
 C 45 362, 47, 367, 51, 368
 C 68 368, 81, 371, 96, 369
 C 87 379, 76, 384, 71, 395
 C 68 402, 65, 412, 70, 417
 C 88 423, 105, 419, 121, 420
 C 112 433, 99, 443, 91, 455
 C 91 467, 86, 479, 91, 488
 C 99 497, 110, 494, 119, 495
 C 133 494, 141, 487, 150, 483
 C 155 498, 148, 517, 157, 527
 C 168 527, 178, 529, 185, 524
 C 198 519, 207, 510, 217, 502
 C 221 520, 222, 538, 225, 556
 C 228 565, 236, 569, 245, 567
 C 257 560, 264, 549, 269, 539
 C 277 545, 281, 553, 290, 556
 C 300 556, 308, 558, 315, 556
 C 324 551, 329, 544, 332, 537
 C 342 542, 354, 542, 362, 539
 C 366 535, 368, 532, 370, 529
 C 371 511, 370, 494, 371, 478
 C 380 493, 388, 507, 401, 519
 C 406 526, 414, 526, 422, 525
 C 426 524, 430, 521, 431, 519
 C 433 498, 433, 476, 430, 459
 C 437 460, 439, 463, 442, 464
 C 456 462, 469, 469, 480, 463
 C 484 448, 483, 432, 478, 421
 C 494 427, 509, 433, 528, 430
 C 536 425, 533, 415, 533, 409
 C 528 395, 520, 386, 513, 376
 C 528 370, 543, 376, 557, 373
 C 567 370, 566, 360, 565, 354
 C 563 338, 548, 333, 541, 324
 C 528 313, 517, 307, 504, 303
 C 522 293, 541, 288, 559, 282
 C 564 278, 567, 274, 565, 268
 C 564 261, 559, 258, 554, 255
 C 541 248, 529, 243, 515, 243
 C 523 235, 533, 230, 540, 222
 C 540 210, 542, 200, 534, 194
 C 529 187, 523, 181, 518, 176
 C 504 171, 492, 175, 480, 175
 C 494 157, 507, 141, 518, 124
 C 533 94, 498, 93, 482, 101
 C 465 104, 452, 111, 440, 119
 C 438 106, 437, 91, 438, 78
 C 437 70, 434, 65, 429, 62
 C 421 60, 412, 58, 407, 62
 C 392 70, 386, 82, 378, 92
 C 374 78, 375, 63, 365, 53
 C 358 49, 347, 49, 341, 51
 C 331 59, 326, 69, 322, 77
 C 309 66, 306, 50, 294, 39
 C 288 39, 283, 38, 279, 38" fill="rgb(100,192,255)" />
<path  d="
 M 73 161 C 78 160, 85, 160, 89, 161
 C 114 176, 135, 193, 158, 205
 C 156 214, 151, 222, 148, 230
 C 126 228, 105, 219, 85, 207
 C 77 201, 72, 195, 66, 190
 C 57 180, 57, 163, 72, 162" fill="rgb(236,247,255)" />
<path  d="
 M 86 251
 L 87 250 C 106 249, 123, 249, 139, 254
 C 149 266, 144, 285, 145, 299
 C 120 296, 96, 292, 73, 284
 C 69 282, 67, 280, 66, 278
 C 59 264, 70, 250, 83, 250" fill="rgb(235,247,255)" />
<path  d="
 M 280 159 C 296 158, 312, 158, 328, 159
 C 330 176, 329, 191, 329, 206
 C 312 211, 295, 214, 278, 215
 C 275 196, 272, 175, 277, 158" fill="rgb(234,246,255)" />
<path  d="
 M 283 56 C 293 68, 302, 85, 308, 100
 C 311 115, 314, 127, 312, 141
 C 295 141, 280, 142, 265, 141
 C 265 124, 265, 111, 268, 98
 C 272 83, 275, 71, 281, 60" fill="rgb(234,246,255)" />
<path  d="
 M 119 99 C 123 98, 128, 98, 131, 100
 C 153 123, 168, 150, 189, 170
 C 185 180, 179, 183, 173, 191
 C 153 180, 143, 160, 130, 145
 C 122 130, 117, 115, 117, 100" fill="rgb(232,246,255)" />
<path  d="
 M 310 445 C 316 467, 317, 495, 318, 521
 C 316 531, 310, 539, 302, 540
 C 287 535, 287, 521, 282, 512
 C 283 491, 285, 471, 282, 453
 C 291 450, 298, 448, 305, 447" fill="rgb(233,246,255)" />
<path  d="
 M 496 114 C 499 134, 451, 175, 433, 198
 C 424 190, 420, 184, 415, 178
 C 417 170, 419, 163, 423, 157
 C 436 144, 448, 134, 462, 128
 C 471 123, 479, 120, 488, 118" fill="rgb(233,246,255)" />
<path  d="
 M 321 292 C 346 290, 328, 326, 337, 339
 C 318 346, 302, 347, 286, 351
 C 283 333, 282, 316, 282, 300
 C 296 297, 307, 295, 319, 293" fill="rgb(234,246,255)" />
<path  d="
 M 198 73 C 206 71, 211, 80, 215, 85
 C 226 107, 242, 124, 246, 145
 C 235 150, 226, 151, 219, 157
 C 213 156, 212, 153, 211, 150
 C 203 137, 198, 124, 195, 111
 C 194 97, 190, 85, 196, 74" fill="rgb(232,245,255)" />
<path  d="
 M 315 229 C 341 222, 328, 258, 334, 271
 C 316 275, 299, 278, 282, 280
 C 278 265, 278, 250, 277, 236
 C 289 232, 301, 231, 313, 229" fill="rgb(233,246,255)" />
<path  d="
 M 491 194
 L 493 192 C 497 193, 503, 192, 508, 193
 C 520 201, 530, 215, 511, 219
 C 495 230, 478, 237, 461, 243
 C 449 241, 451, 226, 443, 220
 C 455 205, 472, 198, 488, 193" fill="rgb(234,246,255)" />
<path  d="
 M 259 301 C 271 309, 262, 337, 267, 351
 C 250 356, 236, 357, 221, 357
 C 214 342, 214, 328, 216, 314
 C 229 308, 243, 307, 255, 303" fill="rgb(233,246,255)" />
<path  d="
 M 353 292 C 367 291, 381, 294, 396, 292
 C 399 308, 404, 321, 405, 336
 C 387 340, 371, 341, 354, 340
 C 352 324, 354, 308, 351, 294" fill="rgb(233,246,255)" />
<path  d="
 M 255 233 C 264 244, 258, 267, 263, 281
 C 247 287, 233, 290, 218, 292
 C 216 274, 215, 257, 216, 241
 C 229 237, 240, 236, 251, 235" fill="rgb(232,245,255)" />
<path  d="
 M 125 320 C 148 313, 146, 336, 147, 350
 C 116 350, 90, 354, 63, 351
 C 67 339, 76, 328, 88, 325
 C 100 320, 112, 319, 125, 320" fill="rgb(231,245,255)" />
<path  d="
 M 414 78 C 425 83, 420, 107, 418, 117
 C 412 136, 403, 151, 397, 166
 C 388 161, 381, 158, 375, 154
 C 378 132, 386, 115, 396, 98
 C 402 90, 406, 86, 412, 80" fill="rgb(229,244,255)" />
<path  d="
 M 374 224 C 404 216, 386, 258, 396, 271
 C 380 274, 367, 274, 354, 274
 C 350 259, 349, 243, 348, 228
 C 356 224, 364, 224, 373, 225" fill="rgb(232,245,255)" />
<path  d="
 M 462 311 C 478 312, 492, 319, 506, 323
 C 522 331, 534, 343, 545, 353
 C 532 356, 520, 355, 509, 356
 C 488 355, 478, 336, 460, 338
 C 461 330, 462, 322, 461, 313" fill="rgb(228,244,255)" />
<path  d="
 M 333 361 C 340 369, 339, 388, 340, 399
 C 320 401, 304, 407, 287, 408
 C 288 393, 284, 380, 286, 369
 C 303 367, 316, 364, 330, 362" fill="rgb(231,245,255)" />
<path  d="
 M 181 416 C 182 427, 161, 453, 149, 462
 C 138 468, 132, 473, 124, 475
 C 118 477, 112, 477, 107, 476
 C 106 468, 109, 463, 112, 458
 C 128 443, 143, 426, 161, 419
 C 167 417, 171, 417, 176, 418" fill="rgb(229,244,255)" />
<path  d="
 M 251 162 C 263 169, 252, 199, 259, 213
 C 244 218, 231, 219, 219, 221
 C 214 207, 218, 196, 216, 183
 C 225 172, 236, 169, 247, 165" fill="rgb(232,246,255)" />
<path  d="
 M 371 358 C 381 357, 392, 358, 402, 357
 C 406 366, 405, 374, 406, 381
 C 400 389, 394, 395, 389, 400
 C 378 401, 369, 400, 360, 400
 C 363 386, 342, 352, 370, 359" fill="rgb(230,245,255)" />
<path  d="
 M 432 382 C 441 390, 452, 403, 456, 415
 C 461 427, 464, 436, 465, 446
 C 453 449, 446, 446, 439, 441
 C 426 430, 418, 424, 410, 411
 C 423 408, 420, 392, 430, 385" fill="rgb(230,245,255)" />
<path  d="
 M 202 447
 L 202 448 C 222 443, 221, 460, 217, 473
 C 202 488, 190, 504, 173, 509
 C 170 492, 171, 478, 176, 465
 C 184 456, 192, 452, 199, 447" fill="rgb(230,245,255)" />
<path  d="
 M 255 373 C 276 368, 266, 399, 269, 408
 C 253 413, 236, 414, 222, 411
 C 223 398, 219, 385, 220, 374
 C 233 374, 243, 374, 254, 374" fill="rgb(228,244,255)" />
<path  d="
 M 192 242 C 206 250, 193, 276, 198, 291
 C 187 296, 175, 293, 165, 297
 C 164 280, 158, 260, 168, 248
 C 175 244, 183, 245, 189, 244" fill="rgb(229,244,255)" />
<path  d="
 M 247 449 C 272 449, 251, 491, 264, 506
 C 258 522, 252, 534, 244, 544
 C 237 523, 236, 502, 236, 480
 C 242 471, 247, 463, 245, 452" fill="rgb(223,242,255)" />
<path  d="
 M 390 419 C 401 429, 405, 448, 411, 461
 C 415 476, 417, 490, 415, 504
 C 393 483, 385, 457, 371, 435
 C 374 427, 382, 426, 387, 423" fill="rgb(224,242,255)" />
<path  d="
 M 348 69 C 356 66, 355, 79, 357, 83
 C 357 105, 358, 125, 357, 144
 C 347 141, 337, 140, 330, 141
 C 328 127, 331, 118, 332, 109
 C 336 94, 340, 82, 347, 71" fill="rgb(225,242,255)" />
<path  d="
 M 485 260 C 492 259, 500, 260, 507, 259
 C 519 260, 527, 263, 535, 266
 C 511 267, 451, 322, 462, 263
 C 469 261, 476, 260, 483, 260" fill="rgb(223,242,255)" />
<path  d="
 M 348 163 C 361 169, 375, 175, 388, 182
 C 391 189, 390, 196, 391, 201
 C 378 209, 362, 205, 350, 208
 C 345 193, 349, 180, 347, 166" fill="rgb(227,243,255)" />
<path  d="
 M 453 350 C 462 360, 475, 362, 484, 374
 C 496 385, 507, 396, 513, 409
 C 493 406, 477, 395, 461, 385
 C 454 377, 452, 369, 447, 362
 C 447 357, 450, 356, 451, 353" fill="rgb(223,242,255)" />
<path  d="
 M 147 373
 L 146 367 C 198 415, 117, 397, 92, 403
 C 95 395, 102, 390, 109, 387
 C 121 379, 133, 376, 144, 372" fill="rgb(222,241,255)" />
<path  d="
 M 345 436 C 355 437, 349, 456, 353, 463
 C 353 484, 355, 504, 353, 522
 C 343 515, 339, 504, 336, 495
 C 338 474, 331, 460, 330, 444
 C 335 440, 339, 439, 342, 437" fill="rgb(218,240,255)" />
<path  d="
 M 177 313 C 183 312, 190, 313, 196, 312
 C 197 328, 198, 343, 198, 356
 C 189 357, 182, 355, 178, 360
 C 175 355, 171, 351, 168, 350
 C 163 342, 164, 334, 162, 327
 C 168 322, 172, 318, 175, 313" fill="rgb(228,244,255)" />
<path  d="
 M 410 223 C 416 222, 424, 221, 426, 228
 C 433 242, 439, 254, 442, 267
 C 432 271, 423, 274, 414, 274
 C 411 257, 409, 242, 410, 225" fill="rgb(223,242,255)" />
<path  d="
 M 441 287 C 448 292, 442, 308, 445, 317
 C 442 325, 440, 331, 437, 337
 C 433 341, 430, 341, 426, 340
 C 422 325, 419, 309, 416, 295
 C 424 291, 432, 291, 438, 288" fill="rgb(224,242,255)" />
<path  d="
 M 175 362 C 175 375, 190, 374, 200, 373
 C 202 387, 204, 398, 205, 409
 C 196 406, 189, 398, 185, 391
 C 179 382, 174, 374, 172, 366" fill="rgb(206,235,255)" />
<path  d="
 M 196 194 C 201 199, 198, 215, 198, 222
 C 189 226, 182, 228, 173, 227
 C 175 216, 184, 206, 193, 197" fill="rgb(209,236,255)" />
<path  d="
 M 324 420 C 325 427, 298, 430, 288, 431
 C 297 424, 309, 424, 319, 421" fill="rgb(146,211,255)" />
<path  d="
 M 267 428 C 278 434, 245, 431, 239, 432
 C 246 430, 255, 429, 263, 429" fill="rgb(123,201,255)" /></svg>